<svg width="24" height="24" viewBox="0 0 24 24" fill="none" xmlns="http://www.w3.org/2000/svg">
<path d="M21.5592 10.7393L20.1992 9.15933C19.9392 8.85933 19.7292 8.29933 19.7292 7.89933V6.19933C19.7292 5.13933 18.8592 4.26933 17.7992 4.26933H16.0992C15.7092 4.26933 15.1392 4.05933 14.8392 3.79933L13.2592 2.43933C12.5692 1.84933 11.4392 1.84933 10.7392 2.43933L9.16915 3.80933C8.86915 4.05933 8.29915 4.26933 7.90915 4.26933H6.17915C5.11915 4.26933 4.24915 5.13933 4.24915 6.19933V7.90933C4.24915 8.29933 4.03915 8.85933 3.78915 9.15933L2.43915 10.7493C1.85915 11.4393 1.85915 12.5593 2.43915 13.2493L3.78915 14.8393C4.03915 15.1393 4.24915 15.6993 4.24915 16.0893V17.7993C4.24915 18.8593 5.11915 19.7293 6.17915 19.7293H7.90915C8.29915 19.7293 8.86915 19.9393 9.16915 20.1993L10.7492 21.5593C11.4392 22.1493 12.5692 22.1493 13.2692 21.5593L14.8492 20.1993C15.1492 19.9393 15.7092 19.7293 16.1092 19.7293H17.8092C18.8692 19.7293 19.7392 18.8593 19.7392 17.7993V16.0993C19.7392 15.7093 19.9492 15.1393 20.2092 14.8393L21.5692 13.2593C22.1492 12.5693 22.1492 11.4293 21.5592 10.7393ZM16.1592 10.1093L11.3292 14.9393C11.1885 15.0798 10.9979 15.1587 10.7992 15.1587C10.6004 15.1587 10.4098 15.0798 10.2692 14.9393L7.84915 12.5193C7.55915 12.2293 7.55915 11.7493 7.84915 11.4593C8.13915 11.1693 8.61915 11.1693 8.90915 11.4593L10.7992 13.3493L15.0992 9.04933C15.3892 8.75933 15.8692 8.75933 16.1592 9.04933C16.4492 9.33933 16.4492 9.81933 16.1592 10.1093Z" fill="white"/>
</svg>
